<svg version="1.0" baseProfile="full" height="1531" width="1482" xmlns="http://www.w3.org/2000/svg" xmlns:xlink="http://www.w3.org/1999/xlink">
  <defs>
    <marker id="Triangle" class="edge"
      viewBox="0 0 10 10" refX="0" refY="5"
      markerUnits="strokeWidth"
      markerWidth="4" markerHeight="3"
      orient="auto">
      <path d="M 0 0 L 10 5 L 0 10 z" />
    </marker>
  </defs>
  <g id="layer1">
    <image xlink:href="file:///home/felipe/current-term/seniordesign/src/parking/parking.png"
       x="0"
       y="0"
       width="1482"
       height="1531"
       id="image3066" />
  </g>
  <style type="text/css" >
      <![CDATA[
        .node {
           stroke: black;
           fill:   white;
        }
	.edge {
	    stroke: red;
	    stroke-width: 2px;
	}
	.lot {
	   fill: #66f;
	   stroke: white;
	   stroke-width: 4px;
      ]]>
    </style>
<polygon class="lot" points="56,1396 70,1325 169,1339 147,1464 90,1443 65,1418" /><polygon class="lot" points="69,1299 169,1315 209,1067 113,1052" /><polygon class="lot" points="119,1022 211,1042 225,964 138,947" /><polygon class="lot" points="147,1464 169,1339 364,1371 338,1505" /><polygon class="lot" points="165,913 239,929 265,794 185,781" /><polygon class="lot" points="200,561 219,448 501,496 481,610 221,564" /><polygon class="lot" points="202,705 221,585 475,631 456,750" /><polygon class="lot" points="222,401 232,367 418,394 418,436" /><polygon class="lot" points="227,1092 247,961 418,988 396,1119" /><polygon class="lot" points="257,933 282,795 454,825 430,964" /><polygon class="lot" points="338,1505 432,1510 470,1467 482,1391 364,1371" /><polygon class="lot" points="375,1338 405,1166 523,1186 495,1360" /><polygon class="lot" points="411,1138 432,1000 550,1018 528,1160" /><polygon class="lot" points="418,394 418,436 527,452 547,332 455,319 435,344" /><polygon class="lot" points="456,287 469,220 513,185 572,185 554,302" /><polygon class="lot" points="481,702 495,635 611,651 589,769 494,755 505,709" /><polygon class="lot" points="500,612 522,497 633,513 614,629" /><polygon class="lot" points="516,143 533,59 593,66 575,157" /><polygon class="lot" points="524,1476 614,1468 581,1373 533,1379" /><polygon class="lot" points="527,452 547,332 659,352 640,474" /><polygon class="lot" points="554,302 661,319 681,191 572,185" /><polygon class="lot" points="575,157 711,172 723,94 593,66" /><polygon class="lot" points="626,1014 626,1079 751,1096 760,1033" /><polygon class="lot" points="626,1014 760,1033 784,869 653,854" /><polygon class="lot" points="681,474 782,491 799,380 706,366" /><polygon class="lot" points="708,319 799,332 825,219 731,198" /><polygon class="lot" points="711,172 832,197 839,107 723,94" /><polygon class="lot" points="779,1099 921,1122 938,972 802,950" /><polygon class="lot" points="802,950 809,877 950,898 938,972" /><polygon class="lot" points="810,1153 819,1117 913,1138 901,1219 847,1212" /><polygon class="lot" points="835,430 929,446 947,372 849,350" /><polygon class="lot" points="922,503 929,446 947,372 1041,384 1018,521" /><polygon class="lot" points="977,986 988,902 1180,929 1168,1024" /><polygon class="lot" points="994,847 1176,876 1217,636 1035,604" /><polygon class="lot" points="1114,1314 1158,1324 1202,1079 1168,1024" /><polygon class="lot" points="1183,1377 1204,1232 1230,1080 1343,1107 1323,1254 1315,1353" /><polygon class="lot" points="1197,1017 1208,943 1384,967 1366,1083 1220,1057" /><circle class="node" cx="495" cy="1467" r="10" /><circle class="node" cx="504" cy="1170" r="10" /><circle class="node" cx="575.0" cy="171.0" r="10" /><circle class="node" cx="466" cy="379" r="10" /><circle class="node" cx="957" cy="992" r="10" /><circle class="node" cx="445.0" cy="939.0" r="10" /><circle class="node" cx="817.0" cy="1112.0" r="10" /><circle class="node" cx="433.0" cy="611.0" r="10" /><circle class="node" cx="196.0" cy="1172.0" r="10" /><circle class="node" cx="860" cy="1035" r="10" /><circle class="node" cx="529" cy="703" r="10" /><circle class="node" cx="184.0" cy="1240.0" r="10" /><circle class="node" cx="856" cy="215" r="10" /><circle class="node" cx="1078" cy="960" r="10" /><circle class="node" cx="272.0" cy="582.0" r="10" /><circle class="node" cx="659" cy="496" r="10" /><circle class="node" cx="99" cy="1397" r="10" /><circle class="node" cx="512" cy="235" r="10" /><circle class="node" cx="794.0" cy="359.0" r="10" /><circle class="node" cx="960" cy="968" r="10" /><circle class="node" cx="858" cy="1167" r="10" /><circle class="node" cx="100" cy="1032" r="10" /><circle class="node" cx="277" cy="754" r="10" /><circle class="node" cx="1023" cy="558" r="10" /><circle class="node" cx="1189" cy="1235" r="10" /><circle class="node" cx="567" cy="562" r="10" /><circle class="node" cx="890" cy="399" r="10" /><circle class="node" cx="912" cy="1227" r="10" /><circle class="node" cx="1192" cy="908" r="10" /><circle class="node" cx="1381" cy="1038" r="10" /><circle class="node" cx="440" cy="1523" r="10" /><circle class="node" cx="624.0" cy="1015.0" r="10" /><circle class="node" cx="928" cy="1130" r="10" /><circle class="node" cx="819" cy="421" r="10" /><circle class="node" cx="173" cy="993" r="10" /><circle class="node" cx="323" cy="441" r="10" /><circle class="node" cx="208" cy="425" r="10" /><circle class="node" cx="763.0" cy="1103.0" r="10" /><circle class="node" cx="804" cy="848" r="10" /><circle class="node" cx="154" cy="735" r="10" /><circle class="node" cx="473" cy="788" r="10" /><circle class="node" cx="773.0" cy="1041.0" r="10" /><circle class="node" cx="322" cy="399" r="10" /><circle class="node" cx="892" cy="1370" r="10" /><circle class="node" cx="874" cy="924" r="10" /><circle class="node" cx="371" cy="1362" r="10" /><circle class="node" cx="742" cy="427" r="10" /><circle class="node" cx="705" cy="942" r="10" /><circle class="node" cx="602.0" cy="639.0" r="10" /><circle class="node" cx="1300" cy="252" r="10" /><circle class="node" cx="265.0" cy="824.0" r="10" /><circle class="node" cx="476.0" cy="761.0" r="10" /><circle class="node" cx="833" cy="370" r="10" /><circle class="node" cx="516" cy="1384" r="10" /><circle class="node" cx="183.0" cy="567.0" r="10" /><circle class="node" cx="1049" cy="397" r="10" /><circle class="node" cx="324" cy="535" r="10" /><circle class="node" cx="650" cy="122" r="10" /><circle class="node" cx="468.0" cy="617.0" r="10" /><circle class="node" cx="899.0" cy="1125.0" r="10" /><circle class="node" cx="322" cy="1040" r="10" /><circle class="node" cx="563" cy="1424" r="10" /><circle class="node" cx="354.0" cy="597.0" r="10" /><circle class="node" cx="704.0" cy="347.0" r="10" /><circle class="node" cx="1188" cy="944" r="10" /><circle class="node" cx="140" cy="1183" r="10" /><circle class="node" cx="685" cy="340" r="10" /><circle class="node" cx="765" cy="267" r="10" /><circle class="node" cx="593" cy="402" r="10" /><circle class="node" cx="776" cy="142" r="10" /><circle class="node" cx="500" cy="1516" r="10" /><circle class="node" cx="554" cy="106" r="10" /><circle class="node" cx="422" cy="459" r="10" /><circle class="node" cx="805" cy="525" r="10" /><circle class="node" cx="1042" cy="455" r="10" /><circle class="node" cx="1112" cy="899" r="10" /><circle class="node" cx="495.0" cy="624.0" r="10" /><circle class="node" cx="1105" cy="740" r="10" /><circle class="node" cx="355" cy="879" r="10" /><circle class="node" cx="1275" cy="1013" r="10" /><circle class="node" cx="449" cy="1262" r="10" /><circle class="node" cx="1398" cy="947" r="10" /><circle class="node" cx="1370" cy="1092" r="10" /><circle class="node" cx="690" cy="1055" r="10" /><circle class="node" cx="792.0" cy="949.0" r="10" /><circle class="node" cx="480" cy="1079" r="10" /><circle class="node" cx="215" cy="1054" r="10" /><circle class="node" cx="454.0" cy="306.0" r="10" /><circle class="node" cx="1214" cy="751" r="10" /><circle class="node" cx="545" cy="1004" r="10" /><circle class="node" cx="213" cy="854" r="10" /><circle class="node" cx="528" cy="477" r="10" /><circle class="node" cx="818.0" cy="211.0" r="10" /><circle class="node" cx="708.0" cy="195.0" r="10" /><circle class="node" cx="365" cy="767" r="10" /><circle class="node" cx="254" cy="1419" r="10" /><circle class="node" cx="899" cy="1326" r="10" /><circle class="node" cx="548.0" cy="320.0" r="10" /><circle class="node" cx="1177" cy="1002" r="10" /><circle class="node" cx="237" cy="952" r="10" /><circle class="node" cx="52" cy="1304" r="10" /><circle class="node" cx="338" cy="667" r="10" /><circle class="node" cx="596" cy="31" r="10" /><circle class="node" cx="1236" cy="641" r="10" /><circle class="node" cx="411" cy="1158" r="10" /><circle class="node" cx="1327" cy="1253" r="10" /><circle class="node" cx="172.0" cy="937.0" r="10" /><circle class="node" cx="617" cy="249" r="10" /><circle class="node" cx="435" cy="981" r="10" /><circle class="node" cx="879" cy="91" r="10" /><circle class="node" cx="1081" cy="228" r="10" /><circle class="node" cx="1259" cy="485" r="10" /><circle class="node" cx="1093" cy="166" r="10" /><circle class="node" cx="591.0" cy="64.0" r="10" /><circle class="node" cx="1160" cy="1185" r="10" /><circle class="node" cx="417" cy="1448" r="10" /><circle class="node" cx="973" cy="872" r="10" /><circle class="node" cx="1004" cy="713" r="10" /><circle class="node" cx="455.0" cy="859.0" r="10" /><circle class="node" cx="798.0" cy="887.0" r="10" /><circle class="node" cx="391.0" cy="604.0" r="10" /><circle class="node" cx="613" cy="815" r="10" /><circle class="node" cx="658.0" cy="339.0" r="10" /><circle class="node" cx="545" cy="1180" r="10" /><circle class="node" cx="765.0" cy="1081.0" r="10" /><circle class="node" cx="971" cy="445" r="10" /><circle class="node" cx="172" cy="1327" r="10" /><circle class="node" cx="314.0" cy="590.0" r="10" /><circle class="node" cx="112" cy="933" r="10" /><circle class="node" cx="979" cy="848" r="10" /><circle class="node" cx="1197" cy="1059" r="10" /><circle class="node" cx="575" cy="1008" r="10" /><circle class="node" cx="1266" cy="1233" r="10" /><circle class="node" cx="477" cy="1486" r="10" /><circle class="node" cx="217" cy="1015" r="10" /><line class="edge" x1="495" x2="477" y1="1467" y2="1486" /><line class="edge" x1="504" x2="545" y1="1170" y2="1180" /><line class="edge" x1="575.0" x2="708.0" y1="171.0" y2="195.0" /><line class="edge" x1="466" x2="322" y1="379" y2="399" /><line class="edge" x1="466" x2="422" y1="379" y2="459" /><line class="edge" x1="466" x2="528" y1="379" y2="477" /><line class="edge" x1="957" x2="960" y1="992" y2="968" /><line class="edge" x1="957" x2="928" y1="992" y2="1130" /><line class="edge" x1="445.0" x2="435" y1="939.0" y2="981" /><line class="edge" x1="817.0" x2="763.0" y1="1112.0" y2="1103.0" /><line class="edge" x1="817.0" x2="899.0" y1="1112.0" y2="1125.0" /><line class="edge" x1="433.0" x2="391.0" y1="611.0" y2="604.0" /><line class="edge" x1="433.0" x2="468.0" y1="611.0" y2="617.0" /><line class="edge" x1="860" x2="765.0" y1="1035" y2="1081.0" /><line class="edge" x1="860" x2="960" y1="1035" y2="968" /><line class="edge" x1="860" x2="792.0" y1="1035" y2="949.0" /><line class="edge" x1="860" x2="899.0" y1="1035" y2="1125.0" /><line class="edge" x1="529" x2="602.0" y1="703" y2="639.0" /><line class="edge" x1="529" x2="495.0" y1="703" y2="624.0" /><line class="edge" x1="856" x2="833" y1="215" y2="370" /><line class="edge" x1="856" x2="879" y1="215" y2="91" /><line class="edge" x1="856" x2="818.0" y1="215" y2="211.0" /><line class="edge" x1="1078" x2="1112" y1="960" y2="899" /><line class="edge" x1="1078" x2="957" y1="960" y2="992" /><line class="edge" x1="272.0" x2="314.0" y1="582.0" y2="590.0" /><line class="edge" x1="272.0" x2="183.0" y1="582.0" y2="567.0" /><line class="edge" x1="659" x2="685" y1="496" y2="340" /><line class="edge" x1="659" x2="528" y1="496" y2="477" /><line class="edge" x1="512" x2="575.0" y1="235" y2="171.0" /><line class="edge" x1="512" x2="617" y1="235" y2="249" /><line class="edge" x1="794.0" x2="833" y1="359.0" y2="370" /><line class="edge" x1="794.0" x2="704.0" y1="359.0" y2="347.0" /><line class="edge" x1="960" x2="874" y1="968" y2="924" /><line class="edge" x1="960" x2="957" y1="968" y2="992" /><line class="edge" x1="960" x2="973" y1="968" y2="872" /><line class="edge" x1="858" x2="817.0" y1="1167" y2="1112.0" /><line class="edge" x1="858" x2="899.0" y1="1167" y2="1125.0" /><line class="edge" x1="277" x2="154" y1="754" y2="735" /><line class="edge" x1="277" x2="365" y1="754" y2="767" /><line class="edge" x1="1023" x2="1042" y1="558" y2="455" /><line class="edge" x1="1023" x2="1004" y1="558" y2="713" /><line class="edge" x1="1023" x2="805" y1="558" y2="525" /><line class="edge" x1="1189" x2="1197" y1="1235" y2="1059" /><line class="edge" x1="567" x2="602.0" y1="562" y2="639.0" /><line class="edge" x1="567" x2="528" y1="562" y2="477" /><line class="edge" x1="567" x2="495.0" y1="562" y2="624.0" /><line class="edge" x1="890" x2="833" y1="399" y2="370" /><line class="edge" x1="890" x2="971" y1="399" y2="445" /><line class="edge" x1="912" x2="928" y1="1227" y2="1130" /><line class="edge" x1="912" x2="899" y1="1227" y2="1326" /><line class="edge" x1="1192" x2="1398" y1="908" y2="947" /><line class="edge" x1="1192" x2="1112" y1="908" y2="899" /><line class="edge" x1="1192" x2="1214" y1="908" y2="751" /><line class="edge" x1="1381" x2="1398" y1="1038" y2="947" /><line class="edge" x1="1381" x2="1275" y1="1038" y2="1013" /><line class="edge" x1="624.0" x2="773.0" y1="1015.0" y2="1041.0" /><line class="edge" x1="624.0" x2="575" y1="1015.0" y2="1008" /><line class="edge" x1="928" x2="912" y1="1130" y2="1227" /><line class="edge" x1="928" x2="957" y1="1130" y2="992" /><line class="edge" x1="928" x2="899.0" y1="1130" y2="1125.0" /><line class="edge" x1="819" x2="833" y1="421" y2="370" /><line class="edge" x1="173" x2="172.0" y1="993" y2="937.0" /><line class="edge" x1="173" x2="217" y1="993" y2="1015" /><line class="edge" x1="323" x2="208" y1="441" y2="425" /><line class="edge" x1="323" x2="422" y1="441" y2="459" /><line class="edge" x1="208" x2="323" y1="425" y2="441" /><line class="edge" x1="763.0" x2="765.0" y1="1103.0" y2="1081.0" /><line class="edge" x1="763.0" x2="817.0" y1="1103.0" y2="1112.0" /><line class="edge" x1="804" x2="613" y1="848" y2="815" /><line class="edge" x1="804" x2="798.0" y1="848" y2="887.0" /><line class="edge" x1="804" x2="973" y1="848" y2="872" /><line class="edge" x1="154" x2="277" y1="735" y2="754" /><line class="edge" x1="473" x2="365" y1="788" y2="767" /><line class="edge" x1="473" x2="476.0" y1="788" y2="761.0" /><line class="edge" x1="473" x2="613" y1="788" y2="815" /><line class="edge" x1="773.0" x2="765.0" y1="1041.0" y2="1081.0" /><line class="edge" x1="773.0" x2="792.0" y1="1041.0" y2="949.0" /><line class="edge" x1="773.0" x2="624.0" y1="1041.0" y2="1015.0" /><line class="edge" x1="322" x2="422" y1="399" y2="459" /><line class="edge" x1="322" x2="323" y1="399" y2="441" /><line class="edge" x1="322" x2="466" y1="399" y2="379" /><line class="edge" x1="892" x2="899" y1="1370" y2="1326" /><line class="edge" x1="874" x2="960" y1="924" y2="968" /><line class="edge" x1="874" x2="792.0" y1="924" y2="949.0" /><line class="edge" x1="371" x2="172" y1="1362" y2="1327" /><line class="edge" x1="371" x2="516" y1="1362" y2="1384" /><line class="edge" x1="742" x2="794.0" y1="427" y2="359.0" /><line class="edge" x1="742" x2="704.0" y1="427" y2="347.0" /><line class="edge" x1="705" x2="773.0" y1="942" y2="1041.0" /><line class="edge" x1="705" x2="624.0" y1="942" y2="1015.0" /><line class="edge" x1="602.0" x2="567" y1="639.0" y2="562" /><line class="edge" x1="602.0" x2="529" y1="639.0" y2="703" /><line class="edge" x1="1300" x2="1259" y1="252" y2="485" /><line class="edge" x1="476.0" x2="495.0" y1="761.0" y2="624.0" /><line class="edge" x1="476.0" x2="473" y1="761.0" y2="788" /><line class="edge" x1="833" x2="794.0" y1="370" y2="359.0" /><line class="edge" x1="833" x2="856" y1="370" y2="215" /><line class="edge" x1="833" x2="819" y1="370" y2="421" /><line class="edge" x1="516" x2="495" y1="1384" y2="1467" /><line class="edge" x1="516" x2="545" y1="1384" y2="1180" /><line class="edge" x1="183.0" x2="272.0" y1="567.0" y2="582.0" /><line class="edge" x1="1049" x2="1042" y1="397" y2="455" /><line class="edge" x1="1049" x2="1081" y1="397" y2="228" /><line class="edge" x1="324" x2="272.0" y1="535" y2="582.0" /><line class="edge" x1="324" x2="314.0" y1="535" y2="590.0" /><line class="edge" x1="324" x2="354.0" y1="535" y2="597.0" /><line class="edge" x1="324" x2="433.0" y1="535" y2="611.0" /><line class="edge" x1="324" x2="468.0" y1="535" y2="617.0" /><line class="edge" x1="324" x2="391.0" y1="535" y2="604.0" /><line class="edge" x1="650" x2="776" y1="122" y2="142" /><line class="edge" x1="650" x2="708.0" y1="122" y2="195.0" /><line class="edge" x1="650" x2="554" y1="122" y2="106" /><line class="edge" x1="468.0" x2="433.0" y1="617.0" y2="611.0" /><line class="edge" x1="468.0" x2="495.0" y1="617.0" y2="624.0" /><line class="edge" x1="899.0" x2="817.0" y1="1125.0" y2="1112.0" /><line class="edge" x1="899.0" x2="928" y1="1125.0" y2="1130" /><line class="edge" x1="322" x2="215" y1="1040" y2="1054" /><line class="edge" x1="322" x2="217" y1="1040" y2="1015" /><line class="edge" x1="563" x2="516" y1="1424" y2="1384" /><line class="edge" x1="354.0" x2="391.0" y1="597.0" y2="604.0" /><line class="edge" x1="354.0" x2="314.0" y1="597.0" y2="590.0" /><line class="edge" x1="704.0" x2="794.0" y1="347.0" y2="359.0" /><line class="edge" x1="704.0" x2="685" y1="347.0" y2="340" /><line class="edge" x1="1188" x2="1192" y1="944" y2="908" /><line class="edge" x1="140" x2="184.0" y1="1183" y2="1240.0" /><line class="edge" x1="140" x2="196.0" y1="1183" y2="1172.0" /><line class="edge" x1="685" x2="659" y1="340" y2="496" /><line class="edge" x1="685" x2="704.0" y1="340" y2="347.0" /><line class="edge" x1="685" x2="658.0" y1="340" y2="339.0" /><line class="edge" x1="685" x2="708.0" y1="340" y2="195.0" /><line class="edge" x1="765" x2="818.0" y1="267" y2="211.0" /><line class="edge" x1="765" x2="708.0" y1="267" y2="195.0" /><line class="edge" x1="593" x2="528" y1="402" y2="477" /><line class="edge" x1="776" x2="708.0" y1="142" y2="195.0" /><line class="edge" x1="776" x2="650" y1="142" y2="122" /><line class="edge" x1="554" x2="575.0" y1="106" y2="171.0" /><line class="edge" x1="554" x2="591.0" y1="106" y2="64.0" /><line class="edge" x1="554" x2="650" y1="106" y2="122" /><line class="edge" x1="422" x2="323" y1="459" y2="441" /><line class="edge" x1="422" x2="528" y1="459" y2="477" /><line class="edge" x1="805" x2="1023" y1="525" y2="558" /><line class="edge" x1="1042" x2="1049" y1="455" y2="397" /><line class="edge" x1="1042" x2="1023" y1="455" y2="558" /><line class="edge" x1="1042" x2="1259" y1="455" y2="485" /><line class="edge" x1="1112" x2="973" y1="899" y2="872" /><line class="edge" x1="1112" x2="1192" y1="899" y2="908" /><line class="edge" x1="495.0" x2="528" y1="624.0" y2="477" /><line class="edge" x1="495.0" x2="468.0" y1="624.0" y2="617.0" /><line class="edge" x1="495.0" x2="476.0" y1="624.0" y2="761.0" /><line class="edge" x1="1105" x2="1214" y1="740" y2="751" /><line class="edge" x1="1105" x2="1004" y1="740" y2="713" /><line class="edge" x1="355" x2="455.0" y1="879" y2="859.0" /><line class="edge" x1="355" x2="265.0" y1="879" y2="824.0" /><line class="edge" x1="1275" x2="1381" y1="1013" y2="1038" /><line class="edge" x1="1275" x2="1177" y1="1013" y2="1002" /><line class="edge" x1="449" x2="371" y1="1262" y2="1362" /><line class="edge" x1="449" x2="504" y1="1262" y2="1170" /><line class="edge" x1="449" x2="411" y1="1262" y2="1158" /><line class="edge" x1="449" x2="516" y1="1262" y2="1384" /><line class="edge" x1="1398" x2="1192" y1="947" y2="908" /><line class="edge" x1="1370" x2="1381" y1="1092" y2="1038" /><line class="edge" x1="690" x2="773.0" y1="1055" y2="1041.0" /><line class="edge" x1="690" x2="624.0" y1="1055" y2="1015.0" /><line class="edge" x1="792.0" x2="773.0" y1="949.0" y2="1041.0" /><line class="edge" x1="792.0" x2="798.0" y1="949.0" y2="887.0" /><line class="edge" x1="480" x2="411" y1="1079" y2="1158" /><line class="edge" x1="480" x2="504" y1="1079" y2="1170" /><line class="edge" x1="480" x2="545" y1="1079" y2="1004" /><line class="edge" x1="480" x2="435" y1="1079" y2="981" /><line class="edge" x1="215" x2="217" y1="1054" y2="1015" /><line class="edge" x1="215" x2="100" y1="1054" y2="1032" /><line class="edge" x1="454.0" x2="548.0" y1="306.0" y2="320.0" /><line class="edge" x1="1214" x2="1236" y1="751" y2="641" /><line class="edge" x1="1214" x2="1192" y1="751" y2="908" /><line class="edge" x1="545" x2="575" y1="1004" y2="1008" /><line class="edge" x1="545" x2="435" y1="1004" y2="981" /><line class="edge" x1="213" x2="265.0" y1="854" y2="824.0" /><line class="edge" x1="213" x2="172.0" y1="854" y2="937.0" /><line class="edge" x1="213" x2="237" y1="854" y2="952" /><line class="edge" x1="528" x2="659" y1="477" y2="496" /><line class="edge" x1="528" x2="422" y1="477" y2="459" /><line class="edge" x1="528" x2="495.0" y1="477" y2="624.0" /><line class="edge" x1="818.0" x2="708.0" y1="211.0" y2="195.0" /><line class="edge" x1="818.0" x2="856" y1="211.0" y2="215" /><line class="edge" x1="708.0" x2="575.0" y1="195.0" y2="171.0" /><line class="edge" x1="708.0" x2="685" y1="195.0" y2="340" /><line class="edge" x1="708.0" x2="818.0" y1="195.0" y2="211.0" /><line class="edge" x1="365" x2="277" y1="767" y2="754" /><line class="edge" x1="365" x2="473" y1="767" y2="788" /><line class="edge" x1="254" x2="371" y1="1419" y2="1362" /><line class="edge" x1="254" x2="172" y1="1419" y2="1327" /><line class="edge" x1="899" x2="892" y1="1326" y2="1370" /><line class="edge" x1="899" x2="912" y1="1326" y2="1227" /><line class="edge" x1="548.0" x2="454.0" y1="320.0" y2="306.0" /><line class="edge" x1="548.0" x2="658.0" y1="320.0" y2="339.0" /><line class="edge" x1="1177" x2="1188" y1="1002" y2="944" /><line class="edge" x1="237" x2="217" y1="952" y2="1015" /><line class="edge" x1="237" x2="172.0" y1="952" y2="937.0" /><line class="edge" x1="237" x2="435" y1="952" y2="981" /><line class="edge" x1="338" x2="272.0" y1="667" y2="582.0" /><line class="edge" x1="338" x2="314.0" y1="667" y2="590.0" /><line class="edge" x1="338" x2="354.0" y1="667" y2="597.0" /><line class="edge" x1="338" x2="433.0" y1="667" y2="611.0" /><line class="edge" x1="338" x2="468.0" y1="667" y2="617.0" /><line class="edge" x1="338" x2="391.0" y1="667" y2="604.0" /><line class="edge" x1="338" x2="365" y1="667" y2="767" /><line class="edge" x1="338" x2="277" y1="667" y2="754" /><line class="edge" x1="1236" x2="1214" y1="641" y2="751" /><line class="edge" x1="1236" x2="1259" y1="641" y2="485" /><line class="edge" x1="411" x2="449" y1="1158" y2="1262" /><line class="edge" x1="411" x2="480" y1="1158" y2="1079" /><line class="edge" x1="1327" x2="1370" y1="1253" y2="1092" /><line class="edge" x1="172.0" x2="112" y1="937.0" y2="933" /><line class="edge" x1="617" x2="575.0" y1="249" y2="171.0" /><line class="edge" x1="617" x2="512" y1="249" y2="235" /><line class="edge" x1="617" x2="708.0" y1="249" y2="195.0" /><line class="edge" x1="435" x2="237" y1="981" y2="952" /><line class="edge" x1="435" x2="545" y1="981" y2="1004" /><line class="edge" x1="879" x2="856" y1="91" y2="215" /><line class="edge" x1="1081" x2="1093" y1="228" y2="166" /><line class="edge" x1="1081" x2="1049" y1="228" y2="397" /><line class="edge" x1="1259" x2="1042" y1="485" y2="455" /><line class="edge" x1="1259" x2="1300" y1="485" y2="252" /><line class="edge" x1="1259" x2="1236" y1="485" y2="641" /><line class="edge" x1="1093" x2="1081" y1="166" y2="228" /><line class="edge" x1="591.0" x2="596" y1="64.0" y2="31" /><line class="edge" x1="1160" x2="1197" y1="1185" y2="1059" /><line class="edge" x1="417" x2="371" y1="1448" y2="1362" /><line class="edge" x1="417" x2="516" y1="1448" y2="1384" /><line class="edge" x1="973" x2="979" y1="872" y2="848" /><line class="edge" x1="973" x2="1112" y1="872" y2="899" /><line class="edge" x1="973" x2="960" y1="872" y2="968" /><line class="edge" x1="973" x2="804" y1="872" y2="848" /><line class="edge" x1="1004" x2="979" y1="713" y2="848" /><line class="edge" x1="1004" x2="1023" y1="713" y2="558" /><line class="edge" x1="1004" x2="1105" y1="713" y2="740" /><line class="edge" x1="455.0" x2="445.0" y1="859.0" y2="939.0" /><line class="edge" x1="798.0" x2="792.0" y1="887.0" y2="949.0" /><line class="edge" x1="798.0" x2="804" y1="887.0" y2="848" /><line class="edge" x1="391.0" x2="354.0" y1="604.0" y2="597.0" /><line class="edge" x1="391.0" x2="433.0" y1="604.0" y2="611.0" /><line class="edge" x1="613" x2="575" y1="815" y2="1008" /><line class="edge" x1="613" x2="473" y1="815" y2="788" /><line class="edge" x1="613" x2="804" y1="815" y2="848" /><line class="edge" x1="658.0" x2="685" y1="339.0" y2="340" /><line class="edge" x1="658.0" x2="548.0" y1="339.0" y2="320.0" /><line class="edge" x1="545" x2="575" y1="1180" y2="1008" /><line class="edge" x1="545" x2="516" y1="1180" y2="1384" /><line class="edge" x1="765.0" x2="763.0" y1="1081.0" y2="1103.0" /><line class="edge" x1="765.0" x2="860" y1="1081.0" y2="1035" /><line class="edge" x1="765.0" x2="773.0" y1="1081.0" y2="1041.0" /><line class="edge" x1="971" x2="890" y1="445" y2="399" /><line class="edge" x1="971" x2="1049" y1="445" y2="397" /><line class="edge" x1="172" x2="254" y1="1327" y2="1419" /><line class="edge" x1="172" x2="371" y1="1327" y2="1362" /><line class="edge" x1="172" x2="52" y1="1327" y2="1304" /><line class="edge" x1="172" x2="99" y1="1327" y2="1397" /><line class="edge" x1="314.0" x2="272.0" y1="590.0" y2="582.0" /><line class="edge" x1="314.0" x2="354.0" y1="590.0" y2="597.0" /><line class="edge" x1="979" x2="1004" y1="848" y2="713" /><line class="edge" x1="979" x2="973" y1="848" y2="872" /><line class="edge" x1="1197" x2="1177" y1="1059" y2="1002" /><line class="edge" x1="575" x2="545" y1="1008" y2="1180" /><line class="edge" x1="575" x2="613" y1="1008" y2="815" /><line class="edge" x1="575" x2="545" y1="1008" y2="1004" /><line class="edge" x1="575" x2="624.0" y1="1008" y2="1015.0" /><line class="edge" x1="1266" x2="1327" y1="1233" y2="1253" /><line class="edge" x1="1266" x2="1189" y1="1233" y2="1235" /><line class="edge" x1="477" x2="440" y1="1486" y2="1523" /><line class="edge" x1="477" x2="500" y1="1486" y2="1516" /><line class="edge" x1="217" x2="215" y1="1015" y2="1054" /><line class="edge" x1="217" x2="237" y1="1015" y2="952" /></svg>